# xmcd
#
# Track frame offsets:
#	150
#	14772
#	28475
#	43937
#	59127
#	72047
#	87635
#	104941
#	120273
#	137270
#	151143
#	171994
#	185647
#	201579
#
# Disc length: 2940 seconds
#
# Revision: 0
# Processed by: cddbd v1.5.1PL0 Copyright (c) Steve Scherf et al.
# Submitted via: EasyCDDAExtractor 8.0.2.1
#
DISCID=da0b7a0e
DTITLE=Various Artist - Various - Mr Music Country 04 2005
DYEAR=1900
DGENRE=Country
TTITLE0=Patsy Cline - A church, a courtroom and then goodbye
TTITLE1=Mike Siler - Playboy
TTITLE2=Rick Sousley - Patsy proof
TTITLE3=Montana Rose with Claudia Appling Williams - I fall to pieces
TTITLE4=Dave Kirby - There ain't no good chain gang
TTITLE5=T. Jae Christian - The yard sale
TTITLE6=Brian Burns - Heavy weather
TTITLE7=Valerie Jay and The Americanos - She's got you
TTITLE8=Johnny Bush and Willie Nelson - Whiskey river
TTITLE9=Britney McGuffie - Ragtop wedding
TTITLE10=The Insiders - Long black veil
TTITLE11=Inger Nordström 'n' Her Rhinestone Band - Honky tonk music
TTITLE12=Jody Jenkins - Fallin'
TTITLE13=Billy Don Burns with Willie Nelson and Hank Cochran - Patsy
EXTD=
EXTT0=
EXTT1=
EXTT2=
EXTT3=
EXTT4=
EXTT5=
EXTT6=
EXTT7=
EXTT8=
EXTT9=
EXTT10=
EXTT11=
EXTT12=
EXTT13=
PLAYORDER=
